<svg width="469" height="65" viewBox="0 0 469 65" fill="none" xmlns="http://www.w3.org/2000/svg">
<path d="M1.81 62.2412H0.81V63.2412H1.81V62.2412ZM13.098 62.2412V63.2412H14.098V62.2412H13.098ZM13.098 37.5902V36.5902H12.098V37.5902H13.098ZM39.824 37.5902H40.824V36.5902H39.824V37.5902ZM39.824 62.2412H38.824V63.2412H39.824V62.2412ZM51.112 62.2412V63.2412H52.112V62.2412H51.112ZM51.112 2.48121H52.112V1.48121H51.112V2.48121ZM39.824 2.48121V1.48121H38.824V2.48121H39.824ZM39.824 27.0492V28.0492H40.824V27.0492H39.824ZM13.098 27.0492H12.098V28.0492H13.098V27.0492ZM13.098 2.48121H14.098V1.48121H13.098V2.48121ZM1.81 2.48121V1.48121H0.81V2.48121H1.81ZM1.81 63.2412H13.098V61.2412H1.81V63.2412ZM14.098 62.2412V37.5902H12.098V62.2412H14.098ZM13.098 38.5902H39.824V36.5902H13.098V38.5902ZM38.824 37.5902V62.2412H40.824V37.5902H38.824ZM39.824 63.2412H51.112V61.2412H39.824V63.2412ZM52.112 62.2412V2.48121H50.112V62.2412H52.112ZM51.112 1.48121H39.824V3.48121H51.112V1.48121ZM38.824 2.48121V27.0492H40.824V2.48121H38.824ZM39.824 26.0492H13.098V28.0492H39.824V26.0492ZM14.098 27.0492V2.48121H12.098V27.0492H14.098ZM13.098 1.48121H1.81V3.48121H13.098V1.48121ZM0.81 2.48121V62.2412H2.81V2.48121H0.81ZM103.848 59.5852L103.334 58.7272L103.332 58.7287L103.848 59.5852ZM113.85 48.6707L112.956 48.2214L112.954 48.2256L113.85 48.6707ZM113.85 16.0517L112.954 16.4968L112.956 16.501L113.85 16.0517ZM103.848 5.13721L103.332 5.99374L103.334 5.99518L103.848 5.13721ZM72.9306 5.13721L72.4169 4.27923L72.4145 4.28069L72.9306 5.13721ZM62.9291 16.0517L62.0358 15.6024L62.0336 15.6066L62.9291 16.0517ZM62.9291 48.6707L62.0336 49.1158L62.0358 49.12L62.9291 48.6707ZM72.9306 59.5852L72.4145 60.4417L72.4169 60.4432L72.9306 59.5852ZM88.4101 52.8622L88.3955 53.8621H88.3956L88.4101 52.8622ZM75.6281 47.2182L74.8346 47.8268L74.8375 47.8305L75.6281 47.2182ZM75.6281 17.3797L74.8309 16.776L74.8281 16.7797L75.6281 17.3797ZM88.4101 11.8602L88.3955 12.8601H88.3956L88.4101 11.8602ZM101.192 17.5042L101.986 16.8957L101.192 17.5042ZM101.192 47.3427L101.992 47.9427L101.192 47.3427ZM88.4101 64.4862C94.5339 64.4862 99.8656 63.1524 104.364 60.4417L103.332 58.7287C99.1986 61.2193 94.2383 62.4862 88.4101 62.4862V64.4862ZM104.362 60.4432C108.875 57.741 112.339 53.9571 114.745 49.1158L112.954 48.2256C110.712 52.7356 107.509 56.228 103.334 58.7272L104.362 60.4432ZM114.743 49.12C117.177 44.2815 118.377 38.686 118.377 32.3612H116.377C116.377 38.4311 115.226 43.7086 112.956 48.2214L114.743 49.12ZM118.377 32.3612C118.377 26.0364 117.177 20.4409 114.743 15.6024L112.956 16.501C115.226 21.0138 116.377 26.2914 116.377 32.3612H118.377ZM114.745 15.6066C112.339 10.7653 108.875 6.98138 104.362 4.27924L103.334 5.99518C107.509 8.49437 110.712 11.9868 112.954 16.4968L114.745 15.6066ZM104.364 4.28069C99.8656 1.56998 94.5339 0.23621 88.4101 0.23621V2.23621C94.2383 2.23621 99.1986 3.50311 103.332 5.99373L104.364 4.28069ZM88.4101 0.23621C82.2861 0.23621 76.9418 1.57005 72.4169 4.27924L73.4443 5.99518C77.6067 3.50304 82.5821 2.23621 88.4101 2.23621V0.23621ZM72.4145 4.28069C67.9304 6.98265 64.4688 10.765 62.0358 15.6024L63.8225 16.501C66.0928 11.9871 69.2988 8.4931 73.4467 5.99373L72.4145 4.28069ZM62.0336 15.6066C59.6292 20.4441 58.4431 26.0381 58.4431 32.3612H60.4431C60.4431 26.2897 61.5811 21.0106 63.8246 16.4968L62.0336 15.6066ZM58.4431 32.3612C58.4431 38.6843 59.6292 44.2783 62.0336 49.1158L63.8246 48.2256C61.5811 43.7118 60.4431 38.4328 60.4431 32.3612H58.4431ZM62.0358 49.12C64.4688 53.9575 67.9304 57.7398 72.4145 60.4417L73.4467 58.7287C69.2988 56.2293 66.0928 52.7353 63.8225 48.2214L62.0358 49.12ZM72.4169 60.4432C76.9418 63.1524 82.2861 64.4862 88.4101 64.4862V62.4862C82.5821 62.4862 77.6067 61.2194 73.4443 58.7272L72.4169 60.4432ZM88.4248 51.8623C82.9837 51.7827 79.0413 49.9924 76.4188 46.6059L74.8375 47.8305C77.9142 51.8034 82.4933 53.7757 88.3955 53.8621L88.4248 51.8623ZM76.4216 46.6096C73.7729 43.1559 72.3951 38.441 72.3951 32.3612H70.3951C70.3951 38.7314 71.8394 43.9212 74.8346 47.8268L76.4216 46.6096ZM72.3951 32.3612C72.3951 26.2829 73.7723 21.5208 76.4281 17.9797L74.8281 16.7797C71.8399 20.764 70.3951 25.9895 70.3951 32.3612H72.3951ZM76.4253 17.9835C79.0429 14.5272 82.9696 12.7807 88.3955 12.8601L88.4248 10.8603C82.5073 10.7737 77.9127 12.7069 74.8309 16.776L76.4253 17.9835ZM88.3956 12.8601C93.8665 12.9398 97.8053 14.7313 100.399 18.1128L101.986 16.8957C98.935 12.9178 94.3524 10.9466 88.4247 10.8603L88.3956 12.8601ZM100.399 18.1128C103.047 21.5665 104.425 26.2814 104.425 32.3612H106.425C106.425 25.991 104.981 20.8012 101.986 16.8957L100.399 18.1128ZM104.425 32.3612C104.425 38.4395 103.048 43.2016 100.392 46.7427L101.992 47.9427C104.98 43.9584 106.425 38.7329 106.425 32.3612H104.425ZM100.392 46.7427C97.8037 50.1939 93.8805 51.9418 88.4247 51.8623L88.3956 53.8621C94.3384 53.9487 98.9366 52.0168 101.992 47.9427L100.392 46.7427ZM125.662 62.2412H124.662V63.2412H125.662V62.2412ZM136.95 62.2412V63.2412H137.95V62.2412H136.95ZM136.95 41.9892V40.9892H135.95V41.9892H136.95ZM153.218 41.9062L153.273 42.9047H153.273L153.218 41.9062ZM155.874 41.6572L156.015 42.6472L156.028 42.6452L155.874 41.6572ZM167.577 35.1002L168.395 35.6754L168.397 35.6724L167.577 35.1002ZM155.874 2.81321L155.698 3.79764L155.709 3.79968L155.721 3.80146L155.874 2.81321ZM153.218 2.56421L153.161 3.56258L153.175 3.56342L153.19 3.56382L153.218 2.56421ZM125.662 2.48121V1.48121H124.662V2.48121H125.662ZM136.95 31.4482H135.95V32.4482H136.95V31.4482ZM136.95 13.0222V12.0222H135.95V13.0222H136.95ZM152.305 13.1052L152.225 14.102L152.305 13.1052ZM154.214 13.4372L153.939 14.3988L153.95 14.402L154.214 13.4372ZM157.741 15.5537L156.973 16.194L156.982 16.2045L157.741 15.5537ZM159.443 18.8322L158.472 19.0747L158.476 19.0879L158.479 19.101L159.443 18.8322ZM159.443 25.6797L158.478 25.4166L158.476 25.4242L158.474 25.4319L159.443 25.6797ZM157.741 28.9582L158.5 29.6091L158.509 29.5984L157.741 28.9582ZM154.214 31.0332L153.95 30.0684L153.939 30.0717L154.214 31.0332ZM152.305 31.3652L152.384 32.362L152.305 31.3652ZM125.662 63.2412H136.95V61.2412H125.662V63.2412ZM137.95 62.2412V41.9892H135.95V62.2412H137.95ZM136.95 42.9892H150.894V40.9892H136.95V42.9892ZM150.894 42.9892C151.474 42.9892 152.271 42.9604 153.273 42.9047L153.162 40.9078C152.172 40.9627 151.419 40.9892 150.894 40.9892V42.9892ZM153.273 42.9047C154.29 42.8482 155.205 42.7628 156.015 42.6472L155.732 40.6673C154.992 40.7729 154.137 40.8536 153.162 40.9078L153.273 42.9047ZM156.028 42.6452C161.539 41.7841 165.712 39.49 168.395 35.6754L166.759 34.525C164.461 37.7931 160.832 39.8703 155.719 40.6692L156.028 42.6452ZM168.397 35.6724C171.021 31.9112 172.312 27.4157 172.312 22.2352H170.312C170.312 27.0701 169.112 31.1512 166.756 34.528L168.397 35.6724ZM172.312 22.2352C172.312 17.0309 171.037 12.5349 168.439 8.79933L166.797 9.94109C169.124 13.2882 170.312 17.3688 170.312 22.2352H172.312ZM168.439 8.79933C165.782 4.97816 161.59 2.68527 156.026 1.82495L155.721 3.80146C160.892 4.60115 164.529 6.67959 166.797 9.94109L168.439 8.79933ZM156.049 1.82878C155.215 1.67978 154.279 1.5933 153.245 1.56459L153.19 3.56382C154.149 3.59045 154.983 3.66998 155.698 3.79764L156.049 1.82878ZM153.275 1.56584C152.298 1.51003 151.502 1.48121 150.894 1.48121V3.48121C151.447 3.48121 152.2 3.50772 153.161 3.56258L153.275 1.56584ZM150.894 1.48121H125.662V3.48121H150.894V1.48121ZM124.662 2.48121V62.2412H126.662V2.48121H124.662ZM137.95 31.4482V13.0222H135.95V31.4482H137.95ZM136.95 14.0222H150.396V12.0222H136.95V14.0222ZM150.396 14.0222C150.945 14.0222 151.555 14.0484 152.225 14.102L152.384 12.1084C151.671 12.0513 151.008 12.0222 150.396 12.0222V14.0222ZM152.225 14.102C152.86 14.1528 153.43 14.2534 153.939 14.3987L154.488 12.4757C153.835 12.2891 153.132 12.1682 152.384 12.1084L152.225 14.102ZM153.95 14.402C155.318 14.7749 156.3 15.3867 156.973 16.1939L158.509 14.9135C157.522 13.7288 156.153 12.9295 154.477 12.4724L153.95 14.402ZM156.982 16.2045C157.712 17.057 158.206 18.0106 158.472 19.0747L160.413 18.5897C160.07 17.2192 159.43 15.9871 158.5 14.9029L156.982 16.2045ZM158.479 19.101C158.79 20.2155 158.941 21.2591 158.941 22.2352H160.941C160.941 21.0533 160.759 19.8282 160.406 18.5634L158.479 19.101ZM158.941 22.2352C158.941 23.2118 158.79 24.2709 158.478 25.4166L160.407 25.9428C160.759 24.6538 160.941 23.4166 160.941 22.2352H158.941ZM158.474 25.4319C158.208 26.4695 157.713 27.4297 156.973 28.318L158.509 29.5984C159.429 28.4947 160.068 27.2693 160.411 25.9275L158.474 25.4319ZM156.982 28.3074C156.31 29.0912 155.325 29.6936 153.95 30.0684L154.477 31.998C156.145 31.5429 157.512 30.7619 158.5 29.609L156.982 28.3074ZM153.939 30.0717C153.43 30.2171 152.86 30.3176 152.225 30.3684L152.384 32.362C153.132 32.3022 153.835 32.1814 154.488 31.9947L153.939 30.0717ZM152.225 30.3684C151.555 30.422 150.945 30.4482 150.396 30.4482V32.4482C151.008 32.4482 151.671 32.4191 152.384 32.362L152.225 30.3684ZM150.396 30.4482H136.95V32.4482H150.396V30.4482ZM228.531 62.2412V63.2412H229.531V62.2412H228.531ZM217.077 62.2412H216.077V63.2412H217.077V62.2412ZM217.077 22.4012H218.077V19.0369L216.239 21.855L217.077 22.4012ZM191.098 62.2412V63.2412H191.64L191.936 62.7874L191.098 62.2412ZM179.644 62.2412H178.644V63.2412H179.644V62.2412ZM179.644 2.48121V1.48121H178.644V2.48121H179.644ZM191.098 2.48121H192.098V1.48121H191.098V2.48121ZM191.098 42.3212H190.098V45.6855L191.936 42.8674L191.098 42.3212ZM217.077 2.48121V1.48121H216.535L216.239 1.93499L217.077 2.48121ZM228.531 2.48121H229.531V1.48121H228.531V2.48121ZM228.531 61.2412H217.077V63.2412H228.531V61.2412ZM218.077 62.2412V22.4012H216.077V62.2412H218.077ZM216.239 21.855L190.26 61.695L191.936 62.7874L217.915 22.9474L216.239 21.855ZM191.098 61.2412H179.644V63.2412H191.098V61.2412ZM180.644 62.2412V2.48121H178.644V62.2412H180.644ZM179.644 3.48121H191.098V1.48121H179.644V3.48121ZM190.098 2.48121V42.3212H192.098V2.48121H190.098ZM191.936 42.8674L217.915 3.02742L216.239 1.93499L190.26 41.775L191.936 42.8674ZM217.077 3.48121H228.531V1.48121H217.077V3.48121ZM227.531 2.48121V62.2412H229.531V2.48121H227.531ZM235.961 62.2412H234.961V63.0631L235.767 63.2223L235.961 62.2412ZM246.128 61.8677L245.718 60.9556L245.714 60.9573L246.128 61.8677ZM251.731 56.1407L252.636 56.5656L251.731 56.1407ZM254.802 46.1392L253.823 45.9345L253.82 45.9471L254.802 46.1392ZM256.42 36.7187L257.411 36.8542L256.42 36.7187ZM257.541 27.3397L256.546 27.2393L257.541 27.3397ZM258.246 19.0812L257.249 19.0037L257.249 19.0147L258.246 19.0812ZM258.703 13.0222V12.0222H257.772L257.705 12.951L258.703 13.0222ZM277.793 13.0222H278.793V12.0222H277.793V13.0222ZM277.793 62.2412H276.793V63.2412H277.793V62.2412ZM289.081 62.2412V63.2412H290.081V62.2412H289.081ZM289.081 2.48121H290.081V1.48121H289.081V2.48121ZM248.328 2.48121V1.48121H247.373L247.329 2.4351L248.328 2.48121ZM247.954 9.74371L248.953 9.79867L248.953 9.79817L247.954 9.74371ZM247.249 19.7867L246.252 19.7043L247.249 19.7867ZM246.087 31.0747L245.094 30.9533L245.093 30.9595L246.087 31.0747ZM244.427 41.9892L243.445 41.8007L243.444 41.8038L244.427 41.9892ZM242.601 48.8367L243.525 49.2191L243.527 49.2135L242.601 48.8367ZM240.028 52.1567L240.521 53.0264L240.529 53.0221L240.028 52.1567ZM235.961 52.8622L236.026 51.8644L234.961 51.7945V52.8622H235.961ZM235.767 63.2223C240.194 64.0963 243.829 64.0113 246.542 62.7781L245.714 60.9573C243.558 61.9374 240.415 62.1014 236.154 61.2602L235.767 63.2223ZM246.538 62.7798C249.243 61.5643 251.274 59.4679 252.636 56.5656L250.826 55.7158C249.643 58.2361 247.938 59.9578 245.718 60.9556L246.538 62.7798ZM252.636 56.5656C253.953 53.7596 254.998 50.3424 255.783 46.3314L253.82 45.9471C253.056 49.8487 252.054 53.0991 250.826 55.7158L252.636 56.5656ZM255.781 46.3439C256.422 43.2765 256.965 40.1132 257.411 36.8542L255.43 36.5832C254.99 39.7982 254.454 42.9152 253.823 45.9345L255.781 46.3439ZM257.411 36.8542C257.855 33.6064 258.23 30.4684 258.536 27.4401L256.546 27.2393C256.243 30.2424 255.871 33.357 255.43 36.5832L257.411 36.8542ZM258.536 27.4401C258.841 24.4155 259.077 21.6511 259.244 19.1477L257.249 19.0147C257.083 21.4913 256.849 24.2326 256.546 27.2393L258.536 27.4401ZM259.243 19.1588C259.437 16.6677 259.589 14.6458 259.7 13.0935L257.705 12.951C257.595 14.4973 257.443 16.5147 257.249 19.0037L259.243 19.1588ZM258.703 14.0222H277.793V12.0222H258.703V14.0222ZM276.793 13.0222V62.2412H278.793V13.0222H276.793ZM277.793 63.2412H289.081V61.2412H277.793V63.2412ZM290.081 62.2412V2.48121H288.081V62.2412H290.081ZM289.081 1.48121H248.328V3.48121H289.081V1.48121ZM247.329 2.4351C247.246 4.2294 247.122 6.64708 246.956 9.68924L248.953 9.79817C249.119 6.75367 249.244 4.32968 249.327 2.52731L247.329 2.4351ZM246.956 9.68874C246.79 12.6935 246.556 16.0318 246.252 19.7043L248.245 19.8691C248.55 16.1822 248.786 12.8252 248.953 9.79867L246.956 9.68874ZM246.252 19.7043C245.949 23.3703 245.563 27.12 245.094 30.9533L247.079 31.1961C247.551 27.3381 247.94 23.5624 248.245 19.8691L246.252 19.7043ZM245.093 30.9595C244.653 34.7551 244.104 38.3687 243.445 41.8007L245.409 42.1778C246.078 38.693 246.635 35.0303 247.08 31.1899L245.093 30.9595ZM243.444 41.8038C242.896 44.7093 242.302 46.9172 241.674 48.4599L243.527 49.2135C244.228 47.4915 244.851 45.1344 245.409 42.1746L243.444 41.8038ZM241.677 48.4544C241.062 49.9406 240.321 50.8312 239.527 51.2913L240.529 53.0221C241.837 52.2648 242.812 50.9422 243.525 49.2191L241.677 48.4544ZM239.534 51.287C238.739 51.7381 237.6 51.9676 236.026 51.8644L235.895 53.8601C237.697 53.9782 239.269 53.7373 240.521 53.0264L239.534 51.287ZM234.961 52.8622V62.2412H236.961V52.8622H234.961ZM300.657 62.2412H299.657V63.2412H300.657V62.2412ZM328.213 62.1582L328.157 61.1598L328.156 61.1598L328.213 62.1582ZM330.869 61.9092L331.01 62.8992L331.022 62.8975L330.869 61.9092ZM342.613 55.3522L343.434 55.9231L343.436 55.9201L342.613 55.3522ZM342.572 29.6222L341.754 30.1974L342.572 29.6222ZM330.869 23.0652L330.693 24.0496L330.704 24.0515L330.714 24.0532L330.869 23.0652ZM328.213 22.8162L328.157 23.8147L328.171 23.8154L328.185 23.8158L328.213 22.8162ZM311.945 22.7332H310.945V23.7332H311.945V22.7332ZM311.945 2.48121H312.945V1.48121H311.945V2.48121ZM300.657 2.48121V1.48121H299.657V2.48121H300.657ZM311.945 51.7002H310.945V52.7002H311.945V51.7002ZM311.945 33.2742V32.2742H310.945V33.2742H311.945ZM327.3 33.3572L327.379 32.3604L327.3 33.3572ZM329.209 33.6892L328.934 34.6508L328.946 34.654L329.209 33.6892ZM332.736 35.8057L331.968 36.446L331.977 36.4565L332.736 35.8057ZM334.438 39.0842L333.468 39.3267L333.471 39.3399L333.474 39.353L334.438 39.0842ZM334.438 45.9317L333.473 45.6686L333.471 45.6762L333.469 45.6839L334.438 45.9317ZM332.736 49.2102L333.496 49.8611L333.504 49.8504L332.736 49.2102ZM329.209 51.2852L328.946 50.3204L328.934 50.3237L329.209 51.2852ZM327.3 51.6172L327.22 50.6204L327.3 51.6172ZM300.657 63.2412H325.889V61.2412H300.657V63.2412ZM325.889 63.2412C326.497 63.2412 327.293 63.2124 328.27 63.1566L328.156 61.1598C327.196 61.2147 326.442 61.2412 325.889 61.2412V63.2412ZM328.268 63.1567C329.286 63.1002 330.2 63.0148 331.01 62.8992L330.727 60.9193C329.988 61.0249 329.132 61.1056 328.157 61.1598L328.268 63.1567ZM331.022 62.8975C336.585 62.0371 340.777 59.7443 343.434 55.9231L341.792 54.7813C339.524 58.0428 335.887 60.1213 330.716 60.921L331.022 62.8975ZM343.436 55.9201C346.031 52.1593 347.307 47.6653 347.307 42.4872H345.307C345.307 47.3244 344.12 51.4071 341.79 54.7843L343.436 55.9201ZM347.307 42.4872C347.307 37.2806 346.017 32.783 343.39 29.047L341.754 30.1974C344.107 33.544 345.307 37.6231 345.307 42.4872H347.307ZM343.39 29.047C340.708 25.2325 336.534 22.9383 331.023 22.0772L330.714 24.0532C335.827 24.8521 339.456 26.9293 341.754 30.1974L343.39 29.047ZM331.044 22.0808C330.21 21.9318 329.274 21.8453 328.24 21.8166L328.185 23.8158C329.144 23.8425 329.978 23.922 330.693 24.0496L331.044 22.0808ZM328.268 21.8177C327.266 21.7621 326.47 21.7332 325.889 21.7332V23.7332C326.414 23.7332 327.168 23.7597 328.157 23.8147L328.268 21.8177ZM325.889 21.7332H311.945V23.7332H325.889V21.7332ZM312.945 22.7332V2.48121H310.945V22.7332H312.945ZM311.945 1.48121H300.657V3.48121H311.945V1.48121ZM299.657 2.48121V62.2412H301.657V2.48121H299.657ZM312.945 51.7002V33.2742H310.945V51.7002H312.945ZM311.945 34.2742H325.391V32.2742H311.945V34.2742ZM325.391 34.2742C325.941 34.2742 326.55 34.3004 327.22 34.354L327.379 32.3604C326.666 32.3033 326.003 32.2742 325.391 32.2742V34.2742ZM327.22 34.354C327.855 34.4048 328.425 34.5054 328.934 34.6507L329.483 32.7277C328.83 32.5411 328.128 32.4202 327.379 32.3604L327.22 34.354ZM328.946 34.654C330.313 35.0269 331.295 35.6387 331.968 36.4459L333.504 35.1655C332.517 33.9808 331.148 33.1815 329.472 32.7244L328.946 34.654ZM331.977 36.4565C332.708 37.309 333.202 38.2626 333.468 39.3267L335.408 38.8417C335.065 37.4712 334.425 36.2391 333.495 35.1549L331.977 36.4565ZM333.474 39.353C333.786 40.4675 333.936 41.5111 333.936 42.4872H335.936C335.936 41.3053 335.754 40.0802 335.401 38.8154L333.474 39.353ZM333.936 42.4872C333.936 43.4638 333.785 44.5229 333.473 45.6686L335.402 46.1948C335.754 44.9058 335.936 43.6686 335.936 42.4872H333.936ZM333.469 45.6839C333.203 46.7215 332.708 47.6817 331.968 48.57L333.504 49.8504C334.424 48.7467 335.063 47.5213 335.406 46.1795L333.469 45.6839ZM331.977 48.5594C331.305 49.3432 330.32 49.9455 328.946 50.3204L329.472 52.25C331.141 51.7949 332.507 51.0139 333.495 49.861L331.977 48.5594ZM328.934 50.3237C328.425 50.4691 327.855 50.5696 327.22 50.6204L327.379 52.614C328.128 52.5542 328.83 52.4334 329.483 52.2467L328.934 50.3237ZM327.22 50.6204C326.55 50.674 325.941 50.7002 325.391 50.7002V52.7002C326.003 52.7002 326.666 52.6711 327.379 52.614L327.22 50.6204ZM325.391 50.7002H311.945V52.7002H325.391V50.7002ZM398.363 58.3817L397.774 57.5732L397.772 57.5748L398.363 58.3817ZM408.24 44.5622L409.19 44.8744L409.517 43.8787L408.507 43.5986L408.24 44.5622ZM396.869 41.4082L397.136 40.4446L396.199 40.1847L395.913 41.1141L396.869 41.4082ZM391.266 49.8327L390.657 49.0398V49.0398L391.266 49.8327ZM368.275 47.3012L367.48 47.9078L367.485 47.9143L368.275 47.3012ZM368.275 17.4627L367.483 16.8524L367.482 16.8533L368.275 17.4627ZM391.266 14.8897L390.657 15.6827L390.662 15.6867L391.266 14.8897ZM396.869 23.3142L395.912 23.6062L396.197 24.5383L397.136 24.2778L396.869 23.3142ZM408.24 20.1602L408.507 21.1238L409.517 20.8437L409.19 19.8481L408.24 20.1602ZM398.363 6.34071L397.772 7.14757L397.774 7.14923L398.363 6.34071ZM365.619 5.13721L365.105 4.27923L365.103 4.28069L365.619 5.13721ZM355.618 16.0517L354.724 15.6024L354.722 15.6066L355.618 16.0517ZM355.618 48.6707L354.722 49.1158L354.724 49.12L355.618 48.6707ZM365.619 59.5852L365.103 60.4417L365.105 60.4432L365.619 59.5852ZM381.099 64.4862C388.131 64.4862 394.103 62.7397 398.953 59.1886L397.772 57.5748C393.326 60.8298 387.789 62.4862 381.099 62.4862V64.4862ZM398.951 59.1902C403.806 55.6565 407.219 50.8715 409.19 44.8744L407.29 44.2501C405.442 49.8729 402.27 54.301 397.774 57.5732L398.951 59.1902ZM408.507 43.5986L397.136 40.4446L396.601 42.3718L407.972 45.5258L408.507 43.5986ZM395.913 41.1141C394.859 44.5405 393.099 47.1631 390.657 49.0398L391.875 50.6256C394.69 48.463 396.665 45.4693 397.824 41.7023L395.913 41.1141ZM390.657 49.0398C388.243 50.8944 385.085 51.8622 381.099 51.8622V53.8622C385.412 53.8622 389.032 52.8104 391.875 50.6256L390.657 49.0398ZM381.099 51.8622C375.664 51.8622 371.713 50.0997 369.065 46.6881L367.485 47.9143C370.592 51.9174 375.19 53.8622 381.099 53.8622V51.8622ZM369.07 46.6946C366.391 43.183 365.001 38.4381 365.001 32.3612H363.001C363.001 38.7343 364.46 43.9494 367.48 47.9078L369.07 46.6946ZM365.001 32.3612C365.001 26.2839 366.391 21.5547 369.068 18.0721L367.482 16.8533C364.46 20.7854 363.001 25.9886 363.001 32.3612H365.001ZM369.067 18.073C371.716 14.6346 375.667 12.8602 381.099 12.8602V10.8602C375.187 10.8602 370.589 12.8208 367.483 16.8524L369.067 18.073ZM381.099 12.8602C385.085 12.8602 388.243 13.828 390.657 15.6826L391.875 14.0968C389.032 11.9121 385.412 10.8602 381.099 10.8602V12.8602ZM390.662 15.6867C393.099 17.5333 394.857 20.152 395.912 23.6062L397.825 23.0222C396.666 19.2278 394.69 16.2301 391.87 14.0927L390.662 15.6867ZM397.136 24.2778L408.507 21.1238L407.972 19.1966L396.601 22.3506L397.136 24.2778ZM409.19 19.8481C407.219 13.8509 403.806 9.06595 398.951 5.53218L397.774 7.14923C402.27 10.4215 405.442 14.8495 407.29 20.4724L409.19 19.8481ZM398.953 5.53384C394.103 1.98277 388.131 0.23621 381.099 0.23621V2.23621C387.789 2.23621 393.326 3.89265 397.772 7.14757L398.953 5.53384ZM381.099 0.23621C374.975 0.23621 369.63 1.57005 365.105 4.27924L366.133 5.99518C370.295 3.50304 375.271 2.23621 381.099 2.23621V0.23621ZM365.103 4.28069C360.619 6.98265 357.157 10.765 354.724 15.6024L356.511 16.501C358.781 11.9871 361.987 8.4931 366.135 5.99373L365.103 4.28069ZM354.722 15.6066C352.318 20.4441 351.132 26.0381 351.132 32.3612H353.132C353.132 26.2897 354.27 21.0106 356.513 16.4968L354.722 15.6066ZM351.132 32.3612C351.132 38.6843 352.318 44.2783 354.722 49.1158L356.513 48.2256C354.27 43.7118 353.132 38.4328 353.132 32.3612H351.132ZM354.724 49.12C357.157 53.9575 360.619 57.7398 365.103 60.4417L366.135 58.7287C361.987 56.2293 358.781 52.7353 356.511 48.2214L354.724 49.12ZM365.105 60.4432C369.63 63.1524 374.975 64.4862 381.099 64.4862V62.4862C375.271 62.4862 370.295 61.2194 366.133 58.7272L365.105 60.4432ZM417.377 62.2412H416.377V63.2412H417.377V62.2412ZM428.665 62.2412V63.2412H429.665V62.2412H428.665ZM428.665 35.0172L429.418 34.3587L427.665 32.3558V35.0172H428.665ZM452.486 62.2412L451.734 62.8997L452.033 63.2412H452.486V62.2412ZM466.762 62.2412V63.2412H468.969L467.514 61.582L466.762 62.2412ZM440.202 31.9462L439.44 31.2995L438.882 31.9571L439.45 32.6054L440.202 31.9462ZM465.185 2.48121L465.948 3.12792L467.344 1.48121H465.185V2.48121ZM451.407 2.48121V1.48121H450.936L450.636 1.84469L451.407 2.48121ZM428.665 30.0372H427.665V32.8199L429.437 30.6737L428.665 30.0372ZM428.665 2.48121H429.665V1.48121H428.665V2.48121ZM417.377 2.48121V1.48121H416.377V2.48121H417.377ZM417.377 63.2412H428.665V61.2412H417.377V63.2412ZM429.665 62.2412V35.0172H427.665V62.2412H429.665ZM427.913 35.6757L451.734 62.8997L453.239 61.5827L429.418 34.3587L427.913 35.6757ZM452.486 63.2412H466.762V61.2412H452.486V63.2412ZM467.514 61.582L440.954 31.287L439.45 32.6054L466.01 62.9004L467.514 61.582ZM440.965 32.5929L465.948 3.12792L464.423 1.8345L439.44 31.2995L440.965 32.5929ZM465.185 1.48121H451.407V3.48121H465.185V1.48121ZM450.636 1.84469L427.894 29.4007L429.437 30.6737L452.179 3.11773L450.636 1.84469ZM429.665 30.0372V2.48121H427.665V30.0372H429.665ZM428.665 1.48121H417.377V3.48121H428.665V1.48121ZM416.377 2.48121V62.2412H418.377V2.48121H416.377Z" fill="#FBFBFB"/>
</svg>
