<svg width="19" height="19" viewBox="0 0 19 19" fill="none" xmlns="http://www.w3.org/2000/svg">
<path d="M5.81625 18.4907L7.47437 18.4907L13 11.4907L16.5 11.4907C16.9641 11.4907 17.4092 11.3063 17.7374 10.9782C18.0656 10.65 18.25 10.2049 18.25 9.74072C18.25 9.2766 18.0656 8.83148 17.7374 8.50329C17.4092 8.1751 16.9641 7.99072 16.5 7.99072L12.9081 7.99072L7.3825 0.990722L5.81713 0.990722L8.27587 7.99072L4.25 7.99072L2.5 5.36572L0.75 5.36572L2.5 9.74072L0.749999 14.1157L2.5 14.1157L4.25 11.4907L8.34938 11.4907L5.81625 18.4907Z" fill="#26C9C9"/>
</svg>
