<svg width="22" height="16" viewBox="0 0 22 16" fill="none" xmlns="http://www.w3.org/2000/svg">
<path d="M20.3454 0.249023H1.65455C1.47832 0.24923 1.30936 0.319348 1.18477 0.443989C1.06018 0.568629 0.990128 0.73761 0.98999 0.913844V2.25128C0.98999 2.3129 1.05681 2.38362 1.11141 2.41222L10.9358 8.0238C10.9609 8.03819 10.9895 8.04563 11.0185 8.04538C11.0481 8.04546 11.0772 8.03756 11.1027 8.0225L20.6301 2.41768C20.6837 2.38778 20.8257 2.30874 20.879 2.27234C20.9434 2.2284 21.01 2.18862 21.01 2.10984V0.913584C21.0098 0.737395 20.9397 0.568481 20.8151 0.443897C20.6905 0.319313 20.5216 0.24923 20.3454 0.249023Z" fill="white"/>
<path d="M20.9269 4.26809C20.9013 4.2535 20.8723 4.24591 20.8429 4.2461C20.8135 4.24628 20.7846 4.25422 20.7592 4.26913L15.3676 7.44139C15.3461 7.45391 15.3277 7.4711 15.3138 7.4917C15.2998 7.5123 15.2907 7.53576 15.2871 7.56037C15.2835 7.58497 15.2854 7.61007 15.2929 7.6338C15.3003 7.65754 15.3129 7.67931 15.3299 7.69749L20.7223 13.5103C20.7377 13.5271 20.7565 13.5405 20.7774 13.5496C20.7983 13.5587 20.8209 13.5634 20.8437 13.5633C20.8877 13.5633 20.93 13.5458 20.9611 13.5146C20.9922 13.4835 21.0098 13.4413 21.0098 13.3972V4.41239C21.0099 4.38316 21.0023 4.35442 20.9878 4.32908C20.9732 4.30374 20.9522 4.2827 20.9269 4.26809Z" fill="white"/>
<path d="M13.8142 8.50665C13.7886 8.47877 13.7542 8.46052 13.7167 8.45494C13.6793 8.44935 13.6411 8.45677 13.6085 8.47597L11.4474 9.74763C11.3208 9.82079 11.1773 9.85976 11.0311 9.86071C10.8848 9.86167 10.7409 9.82458 10.6133 9.75309L8.71139 8.66655C8.68069 8.64906 8.64521 8.6418 8.61011 8.64582C8.575 8.64984 8.54209 8.66493 8.51613 8.6889L1.29385 15.3881C1.27492 15.4058 1.26038 15.4276 1.2514 15.452C1.24242 15.4763 1.23924 15.5023 1.24212 15.5281C1.245 15.5539 1.25385 15.5786 1.26798 15.6003C1.28211 15.6221 1.30112 15.6402 1.32349 15.6533C1.43581 15.7193 1.54423 15.7508 1.65447 15.7508H20.1543C20.1866 15.7508 20.2183 15.7414 20.2453 15.7236C20.2724 15.7058 20.2936 15.6804 20.3064 15.6507C20.3193 15.6211 20.3233 15.5883 20.3179 15.5565C20.3124 15.5247 20.2978 15.4951 20.2757 15.4715L13.8142 8.50665Z" fill="white"/>
<path d="M6.92683 7.89591C6.94596 7.87822 6.96066 7.85628 6.96975 7.83187C6.97884 7.80745 6.98206 7.78124 6.97915 7.75535C6.97624 7.72946 6.96728 7.70462 6.953 7.68283C6.93872 7.66105 6.91951 7.64292 6.89693 7.62992L1.23777 4.39761C1.21252 4.38327 1.18394 4.37581 1.1549 4.37598C1.12585 4.37615 1.09737 4.38394 1.07228 4.39858C1.0472 4.41321 1.02639 4.43418 1.01195 4.45938C0.997511 4.48457 0.989939 4.51312 0.989993 4.54217V13.0234C0.98981 13.0558 0.999129 13.0875 1.0168 13.1146C1.03447 13.1418 1.05971 13.1632 1.0894 13.1761C1.11909 13.1891 1.15192 13.193 1.18384 13.1875C1.21576 13.182 1.24536 13.1672 1.26897 13.145L6.92683 7.89591Z" fill="white"/>
</svg>
