<svg width="20" height="20" viewBox="0 0 20 20" fill="none" xmlns="http://www.w3.org/2000/svg">
<path d="M1.88657 18.75C1.88427 18.7499 1.88085 18.7497 1.87642 18.7494C1.85857 18.7481 1.82655 18.7451 1.78549 18.7382C1.69864 18.7237 1.59812 18.6967 1.50971 18.6524C1.42522 18.6102 1.37114 18.5625 1.33596 18.5098C1.30494 18.4632 1.25 18.3563 1.25 18.125C1.25 17.5693 1.55679 16.2012 2.78523 14.9727C3.98436 13.7736 6.14839 12.625 10 12.625C13.8516 12.625 16.0156 13.7736 17.2148 14.9727C18.4432 16.2012 18.75 17.5693 18.75 18.125C18.75 18.3563 18.6951 18.4632 18.664 18.5098C18.6289 18.5625 18.5748 18.6102 18.4903 18.6524C18.4019 18.6967 18.3014 18.7237 18.2145 18.7382C18.1735 18.7451 18.1414 18.7481 18.1236 18.7494C18.1191 18.7497 18.1157 18.7499 18.1134 18.75H1.88657ZM12.74 7.86504C12.0133 8.59174 11.0277 9 10 9C8.97229 9 7.98666 8.59174 7.25996 7.86504C6.53326 7.13834 6.125 6.15271 6.125 5.125C6.125 4.09729 6.53326 3.11166 7.25996 2.38496C7.98666 1.65826 8.97229 1.25 10 1.25C11.0277 1.25 12.0133 1.65826 12.74 2.38496C13.4667 3.11166 13.875 4.09729 13.875 5.125C13.875 6.15271 13.4667 7.13834 12.74 7.86504Z" stroke="#E83B3B" stroke-width="2"/>
</svg>
