<svg width="36" height="48" viewBox="0 0 36 48" fill="none" xmlns="http://www.w3.org/2000/svg">
<path d="M35.5944 9.63637L26.3636 0.4056C26.104 0.145938 25.7518 0 25.3846 0H5.07692C2.27751 0 0 2.27751 0 5.07692V42.1846C0 44.984 2.27751 47.2615 5.07692 47.2615H30.9231C33.7225 47.2615 36 44.984 36 42.1846V10.6154C36 10.2482 35.8541 9.89603 35.5944 9.63637ZM26.7692 4.72735L31.2726 9.23077H26.7692V4.72735ZM30.9231 44.4923H5.07692C3.80446 44.4923 2.76923 43.4571 2.76923 42.1846V5.07692C2.76923 3.80446 3.80446 2.76923 5.07692 2.76923H24V10.6154C24 11.3801 24.6199 12 25.3846 12H33.2308V42.1846C33.2308 43.4571 32.1955 44.4923 30.9231 44.4923Z" fill="#C4C4C4"/>
<path d="M27.2309 18.6462C25.4812 18.6462 23.9082 17.674 23.1258 16.1092L22.931 15.7194C22.6964 15.2502 22.217 14.9539 21.6925 14.9539H14.3078C13.7834 14.9539 13.3039 15.2502 13.0693 15.7193L12.8745 16.109C12.0921 17.674 10.5191 18.6462 8.76938 18.6462C8.0047 18.6462 7.38477 19.2661 7.38477 20.0308V27.932C7.38477 31.0386 8.36498 33.998 10.2193 36.4904C12.0737 38.9827 14.6268 40.772 17.6023 41.6647C17.7321 41.7036 17.8661 41.7231 18.0002 41.7231C18.1342 41.7231 18.2682 41.7036 18.398 41.6647C21.3735 40.772 23.9266 38.9827 25.781 36.4904C27.6353 33.998 28.6155 31.0386 28.6155 27.932V20.0308C28.6155 19.2661 27.9956 18.6462 27.2309 18.6462ZM25.8463 27.932C25.8463 32.9403 22.7105 37.2907 18.0002 38.8853C13.2898 37.2907 10.154 32.9403 10.154 27.932V21.2863C12.2495 20.8908 14.0713 19.6063 15.1502 17.723H20.8502C21.929 19.6063 23.7508 20.8908 25.8463 21.2863V27.932Z" fill="#C4C4C4"/>
<path d="M20.9374 24.7486L16.6947 28.9911L15.0629 27.3594C14.5222 26.8187 13.6455 26.8187 13.1048 27.3594C12.564 27.9001 12.564 28.7768 13.1048 29.3175L15.7156 31.9284C15.986 32.1987 16.3403 32.334 16.6946 32.334C17.0489 32.334 17.4034 32.1988 17.6736 31.9284L22.8953 26.7067C23.436 26.166 23.436 25.2893 22.8953 24.7486C22.3547 24.2078 21.478 24.2078 20.9374 24.7486Z" fill="#C4C4C4"/>
</svg>
