<svg width="194" height="70" viewBox="0 0 194 70" fill="none" xmlns="http://www.w3.org/2000/svg">
<path d="M65.7773 61.118V69.4595H66.969V65.8846H71.0206V69.4595H71.9739V61.118H71.0206V64.6929H66.969V61.118H65.7773Z" fill="#003249"/>
<path d="M76.2638 61.118C74.9292 61.118 73.6422 63.0246 73.1656 63.9779C72.9749 65.3126 73.0861 66.4406 73.1656 66.8378C73.9282 68.3631 75.0722 69.2211 75.5488 69.4595C76.6928 69.8409 78.5677 69.6184 79.3621 69.4595C80.8874 68.8876 81.7454 67.4734 81.9837 66.8378C82.1744 66.2658 82.0632 64.8517 81.9837 64.2162C81.7931 62.8815 80.1565 61.5946 79.3621 61.118C77.6461 60.9273 76.5816 61.0385 76.2638 61.118Z" fill="#003249"/>
<path d="M83.1754 69.4595V61.118H87.4653C88.7999 62.262 88.9747 63.5013 88.8953 63.9779C88.514 65.694 87.4653 66.1229 86.9886 66.1228H84.367V69.4595H83.1754Z" fill="#003249"/>
<path d="M89.8486 69.4595V61.118H91.2786V67.3145L95.5685 61.118H96.5218V69.4595H95.5685V63.0245L91.0402 69.4595H89.8486Z" fill="#003249"/>
<path d="M101.05 61.118L97.2368 69.4595H98.6668L101.527 63.0245L104.387 69.4595H105.817L101.765 61.118H101.05Z" fill="#003249"/>
<path d="M106.293 69.4595V61.118H107.485V64.6929H110.583C111.155 65.0743 111.775 65.8051 112.013 66.1228V67.3145C111.823 68.4584 110.98 69.2211 110.583 69.4595H106.293Z" fill="#003249"/>
<path d="M118.686 61.118C119.83 61.4994 120.593 62.5479 120.831 63.0245V63.7395H119.878C120.069 63.1675 119.004 62.389 118.448 62.0712H115.588C114.635 62.8338 114.238 63.8189 114.158 64.2162V65.6462C113.777 66.9807 114.953 68.1089 115.588 68.5061H118.448C118.829 68.6968 119.719 67.6322 120.116 67.0761H120.831V67.5528C120.641 68.6968 119.481 69.3006 118.925 69.4595H115.588C113.872 68.6969 113.125 67.3939 112.967 66.8378V63.7395C114.044 62.2142 115.163 61.3563 115.588 61.118H118.686Z" fill="#003249"/>
<path d="M122.023 69.4595V61.118H123.215V64.4545L126.551 61.118H127.743V61.5946L124.168 64.9312V65.4078L127.743 68.9828V69.4595H126.551L123.215 66.1228V69.4595H122.023Z" fill="#003249"/>
<path d="M74.3553 64.2159C74.1646 64.7879 74.2758 66.0431 74.3553 66.5992C74.4161 67.1713 75.3345 68.1085 75.7861 68.5056C76.5488 68.887 78.0105 68.6645 78.6461 68.5056C79.5994 68.315 80.1555 67.6318 80.3144 67.314C81.077 66.3607 80.9499 64.8514 80.791 64.2159C80.4097 62.8813 79.5199 62.2298 79.1227 62.0709C78.1694 61.6896 76.8189 61.912 76.2628 62.0709C75.5001 62.4522 74.6733 63.6598 74.3553 64.2159Z" fill="white"/>
<path d="M84.1276 65.169V62.0709H87.2259C87.7979 62.4523 87.9409 63.1831 87.9409 63.5007C87.9409 64.2634 87.4642 64.9307 87.2259 65.169H84.1276Z" fill="white"/>
<path d="M107.484 68.5056V65.4074H110.344C111.059 66.1223 111.059 66.3607 111.059 67.314C111.059 68.0766 110.582 68.4262 110.344 68.5056H107.484Z" fill="white"/>
<path d="M23.8329 0H0.238329H0V49.5725H65.5405V46.9509H61.0123V0H37.1794V46.9509H23.8329V0Z" fill="#012F46"/>
<path d="M71.9754 0V49.5725H97V32.1744L116.543 31.9361C122.835 31.7455 128.857 27.8845 131.081 25.9779C136.038 21.974 135.371 14.7764 134.418 11.6781C132.13 7.10221 128.857 4.52826 127.506 3.81327C124.265 0.762654 116.622 0 113.206 0H71.9754Z" fill="#012F46"/>
<path d="M136.563 2.38329H152.769V49.5725H178.032V2.38329H194V0H136.563V2.38329Z" fill="#012F46"/>
<path d="M106.772 1.90625H96.7617V29.5524H106.772V1.90625Z" fill="white"/>
</svg>
