<svg width="21" height="15" viewBox="0 0 21 15" fill="none" xmlns="http://www.w3.org/2000/svg">
<path d="M20.8731 6.9582C18.896 3.03166 14.9818 0.375 10.5 0.375C6.01815 0.375 2.1029 3.03352 0.126855 6.95857C0.0434537 7.1265 0 7.31202 0 7.50019C0 7.68835 0.0434537 7.87387 0.126855 8.0418C2.10399 11.9683 6.01815 14.625 10.5 14.625C14.9818 14.625 18.8971 11.9665 20.8731 8.04143C20.9565 7.8735 21 7.68798 21 7.49981C21 7.31165 20.9565 7.12613 20.8731 6.9582ZM10.5 12.8438C9.46162 12.8438 8.44659 12.5303 7.58323 11.9432C6.71987 11.356 6.04697 10.5214 5.64961 9.54496C5.25225 8.56852 5.14828 7.49407 5.35085 6.45749C5.55343 5.4209 6.05344 4.46873 6.78767 3.7214C7.52189 2.97406 8.45735 2.46512 9.47575 2.25893C10.4942 2.05274 11.5498 2.15856 12.5091 2.56302C13.4684 2.96747 14.2883 3.6524 14.8652 4.53117C15.4421 5.40995 15.75 6.44311 15.75 7.5C15.7503 8.20185 15.6147 8.89688 15.351 9.54537C15.0873 10.1939 14.7006 10.7831 14.213 11.2794C13.7255 11.7756 13.1466 12.1692 12.5095 12.4377C11.8723 12.7061 11.1895 12.8441 10.5 12.8438ZM10.5 3.9375C10.1876 3.94194 9.87719 3.98925 9.57722 4.07814C9.82448 4.42017 9.94314 4.84107 9.91167 5.26451C9.8802 5.68795 9.70068 6.08589 9.40568 6.38616C9.11067 6.68643 8.71972 6.86916 8.30371 6.90119C7.8877 6.93322 7.47418 6.81244 7.13815 6.56076C6.94681 7.2783 6.98135 8.03886 7.23691 8.73537C7.49248 9.43189 7.9562 10.0293 8.5628 10.4435C9.16941 10.8577 9.88836 11.0679 10.6185 11.0444C11.3485 11.0209 12.053 10.765 12.6327 10.3126C13.2125 9.86028 13.6382 9.23427 13.8501 8.52273C14.0619 7.81119 14.0492 7.04993 13.8138 6.34611C13.5783 5.64229 13.132 5.03135 12.5375 4.59928C11.943 4.1672 11.2304 3.93575 10.5 3.9375Z" fill="black"/>
</svg>
