<svg width="29" height="29" viewBox="0 0 29 29" fill="none" xmlns="http://www.w3.org/2000/svg">
  <g clip-path="url(#clip0)">
  <path d="M28.2448 24.6571L16.8733 13.2856L3.58772 0H2.54944L2.33743 0.538709C1.77788 1.96062 1.5388 3.41492 1.64613 4.74422C1.76848 6.25947 2.34412 7.57132 3.31091 8.53812L13.6824 18.9096L15.0504 17.5416L24.6388 28.2633C25.5926 29.2171 27.2343 29.2737 28.2448 28.2633C29.2391 27.269 29.2391 25.6513 28.2448 24.6571Z" fill="white"/>
  <path d="M8.87729 16.5075L0.754406 24.6303C-0.23975 25.6245 -0.23975 27.2422 0.754406 28.2364C1.69883 29.1808 3.33263 29.2642 4.36043 28.2364L12.4834 20.1134L8.87729 16.5075Z" fill="white"/>
  <path d="M27.7687 4.82856L23.1609 9.43627L21.9588 8.23425L26.5666 3.62648L25.3646 2.42445L20.7569 7.03216L19.5548 5.83014L24.1626 1.22242L22.9606 0.0204513L16.9505 6.03059C16.2153 6.76584 15.7762 7.7421 15.7142 8.77964C15.6985 9.04251 15.6389 9.30107 15.54 9.54701L19.4442 13.4512C19.6902 13.3522 19.9488 13.2927 20.2116 13.277C21.2491 13.2151 22.2254 12.776 22.9606 12.0407L28.9708 6.03064L27.7687 4.82856Z" fill="white"/>
  </g>
  <defs>
  <clipPath id="clip0">
  <rect width="29" height="29" fill="white"/>
  </clipPath>
  </defs>
</svg> 