<svg width="57" height="57" viewBox="0 0 57 57" fill="none" xmlns="http://www.w3.org/2000/svg">
<circle cx="28.6576" cy="28.3412" r="27.5912" stroke="#26C9C9" stroke-width="1.5"/>
<path fill-rule="evenodd" clip-rule="evenodd" d="M31.3504 32.6618C31.2904 32.602 31.2428 32.5309 31.2103 32.4527C31.1779 32.3744 31.1612 32.2905 31.1612 32.2058C31.1612 32.1211 31.1779 32.0372 31.2103 31.9589C31.2428 31.8807 31.2904 31.8096 31.3504 31.7498L34.7604 28.3411L31.3504 24.9324C31.2905 24.8725 31.243 24.8014 31.2106 24.7232C31.1782 24.645 31.1615 24.5611 31.1615 24.4764C31.1615 24.3917 31.1782 24.3078 31.2106 24.2296C31.243 24.1513 31.2905 24.0802 31.3504 24.0204C31.4103 23.9605 31.4814 23.913 31.5596 23.8806C31.6379 23.8481 31.7217 23.8315 31.8064 23.8315C31.8911 23.8315 31.975 23.8481 32.0532 23.8806C32.1315 23.913 32.2026 23.9605 32.2625 24.0204L36.1272 27.8851C36.1872 27.9449 36.2347 28.016 36.2672 28.0942C36.2997 28.1725 36.3164 28.2564 36.3164 28.3411C36.3164 28.4258 36.2997 28.5097 36.2672 28.588C36.2347 28.6662 36.1872 28.7373 36.1272 28.7971L32.2625 32.6618C32.2026 32.7218 32.1316 32.7694 32.0533 32.8019C31.975 32.8344 31.8912 32.8511 31.8064 32.8511C31.7217 32.8511 31.6378 32.8344 31.5596 32.8019C31.4813 32.7694 31.4102 32.7218 31.3504 32.6618Z" fill="#26C9C9"/>
<path fill-rule="evenodd" clip-rule="evenodd" d="M35.7422 28.341C35.7422 28.5118 35.6743 28.6757 35.5535 28.7964C35.4327 28.9172 35.2689 28.9851 35.0981 28.9851L21.5716 28.9851C21.4008 28.9851 21.2369 28.9172 21.1161 28.7964C20.9953 28.6757 20.9275 28.5118 20.9275 28.341C20.9275 28.1702 20.9953 28.0063 21.1161 27.8855C21.2369 27.7647 21.4008 27.6969 21.5716 27.6969L35.0981 27.6969C35.2689 27.6969 35.4327 27.7647 35.5535 27.8855C35.6743 28.0063 35.7422 28.1702 35.7422 28.341Z" fill="#26C9C9"/>
</svg>
