<svg width="57" height="57" viewBox="0 0 57 57" fill="none" xmlns="http://www.w3.org/2000/svg">
<circle cx="28.3405" cy="28.3414" r="27.5912" transform="rotate(-180 28.3405 28.3414)" stroke="#B0B0B0" stroke-width="1.5"/>
<path fill-rule="evenodd" clip-rule="evenodd" d="M25.6477 24.0208C25.7076 24.0806 25.7552 24.1517 25.7877 24.2299C25.8202 24.3082 25.8369 24.3921 25.8369 24.4768C25.8369 24.5615 25.8202 24.6454 25.7877 24.7237C25.7552 24.8019 25.7076 24.873 25.6477 24.9328L22.2377 28.3415L25.6477 31.7502C25.7075 31.8101 25.755 31.8812 25.7875 31.9594C25.8199 32.0377 25.8365 32.1215 25.8365 32.2062C25.8365 32.2909 25.8199 32.3748 25.7875 32.453C25.755 32.5313 25.7075 32.6024 25.6477 32.6623C25.5878 32.7221 25.5167 32.7696 25.4384 32.8021C25.3602 32.8345 25.2763 32.8512 25.1916 32.8512C25.1069 32.8512 25.0231 32.8345 24.9448 32.8021C24.8666 32.7696 24.7955 32.7221 24.7356 32.6623L20.8709 28.7976C20.8109 28.7377 20.7633 28.6666 20.7308 28.5884C20.6984 28.5101 20.6816 28.4262 20.6816 28.3415C20.6816 28.2568 20.6984 28.1729 20.7308 28.0946C20.7633 28.0164 20.8109 27.9453 20.8709 27.8855L24.7356 24.0208C24.7954 23.9608 24.8665 23.9132 24.9447 23.8807C25.023 23.8483 25.1069 23.8315 25.1916 23.8315C25.2763 23.8315 25.3602 23.8483 25.4385 23.8807C25.5167 23.9132 25.5878 23.9608 25.6477 24.0208Z" fill="#B0B0B0"/>
<path fill-rule="evenodd" clip-rule="evenodd" d="M21.2559 28.3416C21.2559 28.1708 21.3237 28.007 21.4445 27.8862C21.5653 27.7654 21.7291 27.6975 21.9 27.6975L35.4265 27.6975C35.5973 27.6975 35.7611 27.7654 35.8819 27.8862C36.0027 28.007 36.0706 28.1708 36.0706 28.3416C36.0706 28.5125 36.0027 28.6763 35.8819 28.7971C35.7611 28.9179 35.5973 28.9857 35.4265 28.9857L21.9 28.9857C21.7291 28.9857 21.5653 28.9179 21.4445 28.7971C21.3237 28.6763 21.2559 28.5125 21.2559 28.3416Z" fill="#B0B0B0"/>
</svg>
